<svg xmlns="http://www.w3.org/2000/svg" width="900" height="560" viewBox="0 0 900 560">
<rect width="100%" height="100%" fill="white"/>
<g font-family="Arial, Helvetica, sans-serif" fill="#111827">
<text x="20" y="30" font-size="20" font-weight="bold">Quality–state Pareto view</text>
<line x1="90" y1="485" x2="865" y2="485" stroke="#111827"/>
<line x1="90" y1="65" x2="90" y2="485" stroke="#111827"/>
<text x="478" y="535" text-anchor="middle" font-size="12">Optimizer state (MiB; lower is better)</text>
<text x="20" y="275" transform="rotate(-90 20 275)" text-anchor="middle" font-size="12">Final validation loss (lower is better)</text>
<circle cx="143.4" cy="106.2" r="6" fill="#2563eb" stroke="#2563eb" fill-opacity="1"/>
<text x="150.4" y="101.2" font-size="10">muon (gpt124m)</text>
<circle cx="204.7" cy="120.3" r="4" fill="#2563eb" stroke="#2563eb" fill-opacity="0.25"/>
<text x="211.7" y="115.3" font-size="10">original (gpt124m)</text>
<circle cx="169.8" cy="121.3" r="6" fill="#2563eb" stroke="#2563eb" fill-opacity="1"/>
<text x="176.8" y="116.3" font-size="10">diag (gpt124m)</text>
<circle cx="169.7" cy="116.1" r="6" fill="#2563eb" stroke="#2563eb" fill-opacity="1"/>
<text x="176.7" y="111.1" font-size="10">none (gpt124m)</text>
<circle cx="237.6" cy="105.6" r="6" fill="#dc2626" stroke="#dc2626" fill-opacity="1"/>
<text x="244.6" y="100.6" font-size="10">muon (gpt275m)</text>
<circle cx="402.6" cy="108.4" r="4" fill="#dc2626" stroke="#dc2626" fill-opacity="0.25"/>
<text x="409.6" y="103.4" font-size="10">original (gpt275m)</text>
<circle cx="350.1" cy="108.3" r="4" fill="#dc2626" stroke="#dc2626" fill-opacity="0.25"/>
<text x="357.1" y="103.3" font-size="10">diag (gpt275m)</text>
<circle cx="332.5" cy="108.5" r="6" fill="#dc2626" stroke="#dc2626" fill-opacity="1"/>
<text x="339.5" y="103.5" font-size="10">none (gpt275m)</text>
<circle cx="417.2" cy="442.2" r="6" fill="#059669" stroke="#059669" fill-opacity="1"/>
<text x="424.2" y="437.2" font-size="10">muon (gpt455m)</text>
<circle cx="811.6" cy="443.6" r="4" fill="#059669" stroke="#059669" fill-opacity="0.25"/>
<text x="818.6" y="438.6" font-size="10">original (gpt455m)</text>
<circle cx="687.1" cy="443.0" r="4" fill="#059669" stroke="#059669" fill-opacity="0.25"/>
<text x="694.1" y="438.0" font-size="10">diag (gpt455m)</text>
<circle cx="645.5" cy="444.4" r="6" fill="#059669" stroke="#059669" fill-opacity="1"/>
<text x="652.5" y="439.4" font-size="10">none (gpt455m)</text>
<rect x="650" y="22" width="10" height="10" fill="#2563eb"/>
<text x="664" y="31" font-size="10">gpt124m</text>
<rect x="735" y="22" width="10" height="10" fill="#dc2626"/>
<text x="749" y="31" font-size="10">gpt275m</text>
<rect x="820" y="22" width="10" height="10" fill="#059669"/>
<text x="834" y="31" font-size="10">gpt455m</text>

</g>
</svg>
